<?xml version="1.0" standalone="no"?>
<!DOCTYPE svg PUBLIC "-//W3C//DTD SVG 20010904//EN"
 "http://www.w3.org/TR/2001/REC-SVG-20010904/DTD/svg10.dtd">
<svg version="1.0" xmlns="http://www.w3.org/2000/svg"
 width="300.000000pt" height="300.000000pt" viewBox="0 0 300.000000 300.000000"
 preserveAspectRatio="xMidYMid meet">
<metadata>
Created by potrace 1.14, written by Peter Selinger 2001-2017
</metadata>
<g transform="translate(0.000000,300.000000) scale(0.100000,-0.100000)"
fill="#000000" stroke="none">
<path d="M2980 2755 c13 -15 2 -47 -13 -38 -5 3 -7 1 -4 -4 4 -6 0 -14 -9 -17
-12 -5 -15 -2 -10 11 5 15 4 15 -9 -1 -11 -15 -12 -23 -3 -33 6 -7 8 -16 4
-20 -3 -3 -6 -1 -6 5 0 7 -4 12 -9 12 -5 0 -7 -10 -5 -22 4 -21 4 -21 -4 -3
-5 11 -7 26 -5 33 3 6 0 12 -7 12 -6 0 -8 -5 -4 -12 5 -8 2 -9 -9 -5 -10 4
-16 2 -14 -6 1 -7 -8 -11 -23 -10 -14 1 -18 0 -7 -3 21 -7 23 -24 2 -24 -8 0
-15 -5 -15 -11 0 -5 4 -8 9 -5 5 3 11 0 14 -8 7 -19 -22 -59 -38 -52 -9 3 -12
-2 -10 -14 3 -16 0 -17 -26 -8 -17 6 -33 8 -36 4 -4 -3 2 -6 12 -6 10 0 15 -3
11 -7 -4 -4 -14 -8 -22 -8 -7 0 -14 -4 -14 -10 -1 -5 -10 -13 -21 -17 -10 -4
-19 -12 -19 -17 0 -6 13 -2 29 7 21 12 26 19 18 25 -8 6 -7 7 4 4 9 -3 21 -1
26 4 6 6 18 6 34 -1 24 -10 24 -10 -3 -5 -20 4 -31 0 -42 -17 -9 -12 -16 -19
-16 -14 0 5 -11 1 -24 -8 -14 -9 -33 -13 -43 -10 -15 5 -16 4 -3 -5 8 -6 11
-11 6 -11 -5 0 -4 -6 2 -13 13 -15 12 -57 -1 -57 -5 0 -5 10 -2 21 5 14 2 25
-6 30 -23 14 -34 10 -14 -4 14 -11 15 -16 5 -22 -9 -6 -11 -4 -5 5 5 9 4 11
-3 6 -9 -5 -9 -13 -1 -27 13 -25 4 -38 -14 -19 -10 10 -9 11 2 5 9 -5 12 -4 8
3 -10 15 -42 8 -45 -11 -2 -10 1 -17 7 -17 6 0 8 8 5 18 -5 13 -4 14 4 3 5 -7
15 -17 22 -21 8 -5 2 -8 -14 -9 -52 -3 -57 -4 -52 -18 3 -8 1 -11 -4 -8 -6 3
-10 0 -11 -7 0 -7 -5 -3 -11 10 -6 12 -18 22 -27 22 -13 0 -14 -2 -2 -9 8 -5
16 -17 17 -25 1 -9 -1 -14 -6 -11 -4 3 -10 -2 -14 -10 -3 -8 3 -19 12 -25 14
-9 13 -10 -7 -4 -15 4 -21 2 -17 -4 3 -6 1 -14 -5 -17 -5 -4 -8 -14 -4 -24 5
-13 4 -14 -6 -3 -17 16 -29 15 -29 -4 0 -9 5 -12 12 -8 7 4 8 3 4 -4 -5 -9
-15 -7 -34 6 -14 9 -23 12 -19 5 4 -7 -2 -20 -14 -32 -12 -11 -18 -24 -15 -30
5 -7 1 -8 -9 -5 -11 5 -13 10 -5 19 8 9 8 15 0 20 -9 6 -14 -1 -11 -17 0 -5
-4 -8 -9 -8 -6 0 -10 5 -10 12 0 6 -3 8 -7 4 -4 -4 3 -15 16 -25 20 -15 21
-18 5 -18 -11 0 -22 5 -26 11 -5 7 -11 7 -20 -3 -11 -11 -11 -13 1 -6 11 6 13
4 8 -8 -4 -12 -2 -14 10 -10 13 5 14 3 4 -15 -9 -17 -9 -22 1 -22 8 0 6 -5 -5
-11 -9 -6 -14 -16 -11 -22 5 -8 2 -7 -7 1 -12 11 -12 14 1 22 13 9 13 10 0 10
-13 0 -13 1 0 11 13 9 13 10 0 6 -8 -2 -16 -9 -16 -15 -1 -7 -2 -17 -3 -23 0
-5 -5 -7 -11 -4 -6 3 -7 -1 -4 -9 3 -9 11 -13 17 -9 6 3 7 1 3 -6 -4 -6 -11
-9 -16 -6 -4 3 -10 0 -12 -7 -3 -7 -7 -5 -11 6 -5 11 -3 15 5 10 7 -4 8 -3 4
5 -4 6 -11 9 -16 6 -4 -3 -10 1 -13 7 -3 7 -4 3 -4 -9 1 -12 6 -19 12 -16 5 4
7 3 3 -2 -4 -4 -2 -17 4 -29 9 -18 7 -17 -14 4 -13 14 -23 30 -23 35 1 6 0 7
-2 3 -2 -4 -12 -4 -21 -1 -9 4 -3 -6 13 -21 l30 -28 -30 17 -30 18 20 -23 20
-23 -20 10 c-25 13 -46 6 -39 -12 3 -7 1 -16 -5 -20 -6 -3 -11 -12 -11 -18 0
-8 4 -7 9 2 5 8 17 16 25 17 9 1 14 -2 10 -7 -3 -5 -10 -6 -16 -3 -7 5 -9 -2
-6 -19 3 -15 1 -24 -4 -21 -13 8 -57 12 -56 5 3 -16 -15 -39 -27 -35 -7 3 -16
0 -20 -5 -3 -6 -11 -8 -17 -5 -7 4 -8 2 -4 -4 4 -7 1 -12 -8 -12 -9 0 -16 -5
-16 -11 0 -5 -4 -7 -10 -4 -5 3 -7 0 -4 -8 3 -8 1 -18 -5 -22 -14 -8 -14 -25
0 -25 5 0 7 5 3 12 -5 7 -3 8 6 3 9 -6 11 -4 5 4 -6 10 -3 11 14 2 11 -7 21
-14 21 -17 0 -3 -5 -2 -10 1 -15 9 -40 -13 -34 -29 3 -7 -2 -13 -10 -13 -8 0
-12 6 -9 13 2 6 0 15 -6 18 -6 4 -8 -5 -6 -24 3 -23 -1 -32 -18 -40 -20 -10
-21 -10 -4 3 16 13 16 15 2 21 -10 3 -13 11 -9 18 5 9 3 9 -9 -1 -18 -14 -22
-23 -9 -18 4 1 7 -3 7 -8 0 -6 -9 -9 -20 -8 -11 1 -14 -1 -7 -3 6 -3 9 -10 6
-15 -3 -6 -12 -5 -22 3 -15 12 -16 11 -3 -5 10 -13 17 -15 27 -6 9 7 14 8 14
1 0 -23 -35 -23 -54 0 -13 16 -17 17 -13 6 4 -10 2 -18 -3 -18 -6 0 -10 -5
-10 -11 0 -7 -8 -18 -17 -25 -17 -12 -17 -12 2 -11 14 1 20 -5 21 -20 1 -15
-3 -20 -15 -16 -13 5 -13 3 -4 -7 9 -10 8 -16 -3 -28 -12 -12 -18 -12 -27 -2
-9 10 -9 11 0 6 9 -5 11 -1 7 11 -5 15 -4 16 6 3 10 -13 11 -13 6 2 -3 11 2
21 12 27 9 5 14 12 11 15 -3 3 -14 -3 -25 -14 -33 -34 -45 -50 -35 -50 5 0 12
-7 15 -16 3 -8 2 -12 -4 -9 -6 3 -10 3 -10 -2 0 -4 -13 -17 -28 -28 -17 -12
-22 -13 -15 -4 7 9 9 20 5 24 -4 5 -2 5 4 2 7 -4 18 1 25 10 12 15 12 16 -5
10 -10 -4 -26 -2 -35 5 -14 12 -15 11 -2 -5 13 -17 13 -18 -3 -15 -13 2 -20
-4 -22 -22 -3 -18 -2 -21 5 -10 5 8 7 18 4 24 -3 5 -1 6 6 2 14 -9 -1 -39 -22
-42 -10 -1 -14 4 -12 15 2 10 -3 18 -11 18 -10 0 -11 -4 -4 -13 8 -8 3 -18
-17 -33 -20 -15 -22 -19 -8 -14 20 6 20 6 1 -15 -10 -12 -24 -19 -30 -15 -6 4
-5 -1 3 -10 13 -16 15 -16 32 -1 10 9 16 21 13 25 -3 5 0 9 5 9 17 0 13 -19
-8 -37 -16 -13 -18 -21 -10 -37 9 -19 9 -20 -4 -3 -17 21 -31 22 -24 2 9 -21
-9 -27 -24 -8 -8 9 -9 14 -3 10 7 -4 14 0 18 8 3 8 0 17 -7 21 -7 4 -9 4 -5
-1 4 -4 0 -14 -10 -21 -16 -12 -16 -13 1 -31 14 -16 14 -20 2 -20 -8 0 -11 5
-8 10 3 5 0 7 -8 5 -8 -3 -13 -10 -12 -16 2 -7 -4 -9 -14 -5 -12 5 -15 2 -10
-10 3 -9 3 -18 -1 -21 -4 -3 -9 4 -9 15 -1 10 7 24 18 29 15 8 17 15 9 29 -5
10 -6 22 -2 26 4 5 1 5 -6 1 -9 -5 -9 -12 -2 -27 13 -24 2 -25 -17 -1 -13 15
-13 15 -4 -4 10 -21 6 -34 -11 -34 -5 0 -6 6 -2 13 4 7 2 7 -7 -2 -11 -10 -11
-15 -1 -18 22 -8 13 -25 -10 -18 -13 3 -18 3 -13 -2 13 -11 17 -33 6 -33 -5 0
-12 -8 -15 -17 -6 -15 -5 -15 13 1 11 10 18 23 15 27 -3 5 -1 9 5 9 5 0 9 -9
8 -19 0 -11 -4 -18 -8 -15 -4 2 -10 -3 -13 -12 -4 -10 -14 -14 -26 -11 -11 3
-18 0 -17 -5 1 -6 -4 -13 -12 -16 -8 -3 -11 0 -7 7 4 6 3 11 -2 11 -5 0 -14
-10 -19 -23 -9 -18 -8 -24 2 -24 8 0 11 7 8 16 -5 13 -3 14 8 4 10 -10 10 -16
1 -25 -7 -7 -12 -8 -12 -2 0 5 -4 3 -9 -4 -5 -9 -15 1 -32 33 -25 47 -33 53
-45 33 -4 -7 -3 -8 4 -4 8 5 10 1 6 -11 -5 -15 -4 -16 6 -3 10 13 11 12 6 -3
-4 -13 -2 -16 7 -11 6 4 9 4 5 -1 -4 -4 -3 -14 4 -22 6 -7 8 -16 4 -20 -3 -3
-6 -1 -6 6 0 7 -5 9 -12 5 -7 -4 -8 -3 -4 4 4 7 3 12 -2 12 -5 0 -14 12 -21
27 -11 23 -10 29 1 37 12 7 10 13 -9 32 -28 28 -35 30 -27 9 4 -8 2 -15 -4
-15 -6 0 -9 8 -7 18 2 9 4 21 4 25 1 5 5 6 10 2 5 -3 12 -1 16 4 3 6 -4 8 -15
6 -18 -3 -20 0 -15 18 4 12 3 17 -2 12 -7 -10 -16 -11 -40 -6 -5 1 -2 5 6 10
9 6 10 11 2 15 -6 4 -11 3 -11 -2 0 -5 -7 -9 -15 -9 -11 0 -14 7 -9 21 4 17 3
18 -5 6 -10 -13 -11 -13 -12 0 -1 8 0 19 1 25 1 5 -2 7 -6 3 -11 -11 -65 25
-59 39 6 18 -27 86 -36 72 -5 -8 -12 -8 -28 0 -12 7 -18 17 -15 23 5 7 2 8 -6
3 -10 -6 -12 -4 -7 9 4 11 3 15 -4 11 -6 -4 -8 -13 -5 -21 3 -7 1 -16 -4 -19
-6 -4 -10 1 -10 9 0 9 -6 15 -12 14 -8 -2 -12 6 -10 21 2 20 0 22 -13 11 -8
-7 -12 -17 -8 -23 3 -6 1 -7 -6 -3 -9 6 -9 11 -1 21 8 9 6 17 -5 29 -9 9 -21
14 -26 11 -5 -4 -6 2 -2 11 5 13 3 15 -8 9 -12 -8 -12 -6 0 8 16 20 25 23 15
5 -5 -10 -4 -10 6 -1 20 19 5 27 -22 12 l-23 -12 20 23 c11 13 14 20 6 15 -11
-6 -13 -4 -8 9 4 11 3 15 -4 11 -6 -4 -8 -13 -5 -21 3 -8 2 -14 -2 -15 -4 0
-16 -2 -28 -3 -26 -3 -30 30 -3 37 10 3 19 11 18 19 0 10 -2 10 -6 1 -2 -7
-15 -13 -27 -13 -12 0 -28 -6 -36 -12 -12 -11 -12 -10 -2 4 8 10 9 19 3 22 -5
3 -11 1 -13 -6 -3 -9 -6 -9 -12 0 -4 7 -2 12 5 12 9 0 9 3 0 14 -10 11 -7 18
11 31 13 10 16 15 8 12 -54 -19 -55 -19 -40 -8 8 6 16 15 16 21 3 23 5 24 15
10 8 -12 10 -12 7 -1 -2 8 -15 16 -28 18 -14 2 -29 8 -34 13 -13 13 -49 13
-41 0 3 -5 12 -7 20 -4 8 4 17 -1 21 -9 3 -9 13 -13 22 -10 13 4 14 3 3 -5
-11 -8 -11 -10 0 -14 8 -3 5 -7 -9 -10 -12 -4 -20 -2 -17 2 10 16 -7 41 -25
35 -11 -3 -20 1 -24 11 -5 14 -9 14 -24 3 -14 -11 -15 -11 -4 1 16 19 15 30
-4 30 -9 0 -12 5 -8 12 5 8 13 5 25 -10 l17 -22 -2 24 c-1 16 -6 22 -15 18
-10 -4 -12 -1 -6 9 7 11 5 11 -11 -1 -10 -8 -22 -19 -26 -25 -5 -6 -8 -5 -8 2
0 7 10 22 23 33 12 12 16 20 8 18 -7 -2 -16 3 -18 10 -3 6 1 12 8 12 6 0 -3
11 -22 23 -19 13 -33 29 -31 35 1 7 -3 12 -9 12 -6 0 -9 -7 -5 -15 3 -8 1 -15
-4 -15 -9 0 -14 14 -11 32 1 8 -39 1 -48 -8 -3 -4 2 -4 11 -1 23 8 32 -8 18
-30 -9 -16 -10 -15 -5 4 5 17 3 21 -7 18 -8 -3 -23 4 -34 16 -10 13 -13 19 -6
15 7 -4 12 -2 12 4 0 8 -10 10 -27 6 -16 -4 -23 -3 -17 1 14 10 11 50 -6 66
-10 10 -11 9 -6 -3 5 -9 2 -9 -7 2 -8 10 -18 14 -22 10 -5 -4 -5 -2 -1 5 4 7
14 10 24 7 13 -5 14 -4 3 4 -11 8 -10 11 5 14 17 3 17 4 -4 10 -12 3 -20 3
-17 -1 2 -5 -6 -13 -19 -19 -19 -8 -23 -8 -22 3 0 8 -3 14 -9 13 -5 0 -9 -5
-7 -11 2 -7 -2 -6 -11 1 -8 7 -17 8 -21 4 -4 -4 -6 0 -4 8 1 8 -3 14 -9 12
-18 -3 -16 5 5 28 17 19 18 19 30 -1 12 -19 11 -20 -10 -13 -20 6 -21 5 -9 -9
7 -9 18 -14 25 -10 6 4 14 8 18 8 3 0 10 4 15 8 4 5 3 8 -2 7 -22 -5 -27 1
-14 18 13 15 12 16 -2 4 -14 -10 -18 -10 -23 3 -5 14 -10 14 -38 -6 -18 -12
-30 -19 -26 -14 4 4 2 15 -5 24 -11 14 -10 14 6 2 23 -18 22 -6 -4 30 -11 16
-25 26 -31 23 -5 -3 -4 3 3 14 10 16 9 24 -4 43 -10 13 -17 18 -17 11 0 -6 -9
-12 -21 -12 -11 0 -17 5 -14 10 4 6 10 8 14 6 4 -3 8 1 8 8 0 7 -6 13 -13 13
-7 0 -11 -4 -8 -9 3 -4 -2 -8 -11 -8 -9 0 -14 -4 -11 -8 2 -4 -4 -9 -16 -9
-19 -2 -19 -2 1 16 18 16 19 20 6 25 -9 3 -13 2 -10 -3 3 -5 0 -13 -6 -17 -7
-4 -9 -3 -6 2 3 6 2 16 -3 24 -6 9 -3 19 8 28 11 9 7 8 -10 -2 -34 -20 -34
-20 -42 0 -5 14 -4 15 8 5 11 -9 15 -7 19 10 7 26 -2 51 -15 43 -6 -4 -5 -10
3 -15 7 -4 10 -11 6 -15 -4 -4 -20 7 -36 24 -16 16 -33 27 -37 24 -4 -4 -4 -1
1 7 7 12 10 11 20 -2 7 -9 16 -13 20 -9 5 4 5 1 1 -5 -4 -7 -3 -13 2 -13 6 0
12 7 16 15 3 8 2 14 -2 14 -20 -3 -32 2 -27 11 4 6 3 10 -2 9 -23 -4 -32 2
-26 19 5 15 4 14 -9 -2 -10 -13 -17 -15 -22 -8 -9 15 -26 16 -26 1 0 -5 5 -7
12 -3 7 4 8 3 4 -4 -4 -7 1 -10 14 -7 12 2 18 0 14 -6 -3 -6 -9 -8 -12 -5 -3
3 -13 -1 -23 -10 -11 -10 -19 -12 -24 -4 -3 6 -3 9 2 8 4 -2 9 2 11 7 1 6 -2
10 -7 10 -5 0 -13 4 -18 9 -5 5 -3 6 4 2 7 -4 13 -2 13 4 0 7 -6 10 -12 8 -10
-4 -14 -268 -16 -1266 l-2 -1262 1500 0 1500 0 0 1383 c-1 1194 -3 1384 -15
1384 -10 0 -12 -4 -5 -12z m-4 -64 c-13 -14 -14 -20 -5 -23 9 -3 9 -6 -2 -10
-21 -8 -21 23 0 39 24 18 26 16 7 -6z m-80 -43 c5 -7 3 -8 -6 -3 -10 6 -12 4
-7 -9 4 -10 3 -15 -3 -11 -6 3 -10 1 -10 -6 0 -7 -3 -10 -6 -7 -5 6 13 48 21
48 2 0 7 -5 11 -12z m-26 -88 c0 -5 -5 -10 -11 -10 -5 0 -7 5 -4 10 3 6 8 10
11 10 2 0 4 -4 4 -10z m-25 -30 c3 -6 -1 -7 -9 -4 -18 7 -21 14 -7 14 6 0 13
-4 16 -10z m-55 -44 c0 -2 -7 -7 -16 -10 -8 -3 -12 -2 -9 4 6 10 25 14 25 6z
m-2685 -26 c3 -5 1 -10 -4 -10 -6 0 -11 5 -11 10 0 6 2 10 4 10 3 0 8 -4 11
-10z m2615 -20 c-8 -5 -19 -10 -25 -10 -5 0 -3 5 5 10 8 5 20 10 25 10 6 0 3
-5 -5 -10z m-2427 -136 c-4 -12 -8 -13 -14 -3 -9 15 -2 32 11 24 5 -3 6 -13 3
-21z m-29 -2 c2 -4 -5 -9 -17 -9 -17 -2 -19 0 -7 7 18 12 18 12 24 2z m43 -57
c0 -8 -4 -12 -9 -9 -5 3 -6 10 -3 15 9 13 12 11 12 -6z m2136 -90 c-7 -21 -12
-19 -10 4 0 11 5 18 9 15 4 -3 5 -11 1 -19z m51 7 c3 -5 -1 -9 -9 -9 -8 0 -12
4 -9 9 3 4 7 8 9 8 2 0 6 -4 9 -8z m-2029 -62 c3 -5 1 -10 -4 -10 -6 0 -11 5
-11 10 0 6 2 10 4 10 3 0 8 -4 11 -10z m35 -14 c0 -2 -8 -10 -17 -17 -16 -13
-17 -12 -4 4 13 16 21 21 21 13z m30 -82 c0 -8 -19 -13 -24 -6 -3 5 1 9 9 9 8
0 15 -2 15 -3z m136 -46 c5 4 3 0 -4 -10 -10 -13 -10 -17 0 -21 10 -4 10 -7
-1 -18 -8 -8 -11 -9 -7 -2 3 6 2 14 -4 18 -6 4 -8 11 -5 16 4 5 1 9 -4 9 -6 0
-11 6 -11 14 0 9 -8 13 -22 10 -21 -4 -22 -4 -3 5 15 7 24 5 36 -9 9 -11 20
-16 25 -12z m1529 2 c3 -5 1 -10 -4 -10 -6 0 -11 5 -11 10 0 6 2 10 4 10 3 0
8 -4 11 -10z m-44 -93 c-7 -7 -7 -15 -1 -22 7 -8 5 -12 -5 -12 -8 0 -12 4 -9
9 3 4 -2 8 -11 8 -9 0 -13 -4 -10 -10 3 -5 1 -10 -4 -10 -14 0 -14 6 -1 30 7
12 16 17 27 13 12 -5 14 -3 8 7 -6 9 -4 11 4 5 9 -5 10 -10 2 -18z m33 -5 c3
-5 -1 -9 -9 -9 -8 0 -12 4 -9 9 3 4 7 8 9 8 2 0 6 -4 9 -8z m-94 -19 c-1 -18
-32 -48 -50 -49 -27 -2 -25 6 8 33 28 23 42 28 42 16z m-62 -133 c-7 -10 -14
-17 -17 -15 -4 4 18 35 25 35 2 0 -1 -9 -8 -20z m-154 -74 c-3 -9 -10 -16 -15
-16 -6 0 -5 9 1 21 13 24 24 20 14 -5z m26 -31 c0 -2 -6 -8 -13 -14 -10 -8
-14 -7 -14 2 0 8 6 14 14 14 7 0 13 -1 13 -2z m-812 -101 c2 -1 -4 -4 -13 -8
-11 -4 -14 -2 -9 6 5 7 2 9 -9 5 -11 -4 -14 -2 -10 9 4 12 8 12 22 2 9 -7 17
-13 19 -14z m755 1 c-3 -9 -8 -14 -10 -11 -3 3 -2 9 2 15 9 16 15 13 8 -4z
m-813 -5 c0 -5 -2 -10 -4 -10 -3 0 -8 5 -11 10 -3 6 -1 10 4 10 6 0 11 -4 11
-10z m85 0 c-3 -5 -2 -10 3 -10 14 0 23 -28 11 -35 -5 -4 -8 -2 -7 3 2 6 -1
10 -7 10 -5 0 -9 -4 -7 -9 1 -5 -3 -9 -9 -9 -6 0 -9 7 -5 15 3 8 0 15 -6 15
-7 0 -3 7 8 15 23 17 27 18 19 5z m595 -62 c0 -7 -5 -6 -13 1 -8 6 -18 7 -22
3 -5 -4 -5 -2 -1 5 8 14 36 6 36 -9z m-40 -22 c0 -2 -8 -10 -17 -17 -16 -13
-17 -12 -4 4 13 16 21 21 21 13z m-510 -21 c0 -8 -2 -15 -4 -15 -2 0 -6 7 -10
15 -3 8 -1 15 4 15 6 0 10 -7 10 -15z m35 -16 c-4 -5 -2 -9 3 -9 6 0 12 -7 16
-15 7 -20 4 -19 -23 4 -21 19 -21 48 0 35 5 -3 7 -10 4 -15z m64 -73 c0 -6 -3
-5 -6 2 -2 6 -8 10 -12 8 -4 -3 -8 5 -8 17 -2 21 -1 22 13 3 8 -11 14 -25 13
-30z m-51 9 c-3 -3 -9 2 -12 12 -6 14 -5 15 5 6 7 -7 10 -15 7 -18z m82 -9 c0
-3 -4 -8 -10 -11 -5 -3 -10 -1 -10 4 0 6 5 11 10 11 6 0 10 -2 10 -4z m46 -58
c4 -7 3 -8 -4 -4 -7 4 -12 1 -12 -8 0 -8 -5 -18 -12 -22 -6 -4 -9 -3 -6 2 3 5
8 17 11 27 7 20 13 21 23 5z m194 -46 c0 -5 -7 -9 -15 -9 -8 0 -12 4 -9 9 3 4
9 8 15 8 5 0 9 -4 9 -8z m-199 -19 c13 -16 12 -17 -3 -4 -17 13 -22 21 -14 21
2 0 10 -8 17 -17z m174 -12 c-3 -2 -12 2 -22 10 -15 13 -16 12 -9 -6 5 -15 4
-17 -5 -8 -18 18 -2 35 21 21 11 -7 17 -14 15 -17z"/>
<path d="M2055 1820 c-10 -11 -14 -20 -9 -20 5 0 15 9 22 20 7 11 11 20 9 20
-2 0 -12 -9 -22 -20z"/>
<path d="M2807 2603 c-4 -6 0 -14 9 -17 8 -3 12 -11 8 -17 -4 -8 -3 -9 5 -5 6
4 9 11 6 16 -3 4 -2 10 2 13 5 2 3 2 -4 1 -6 -2 -13 2 -16 9 -2 8 -5 8 -10 0z"/>
<path d="M2706 2542 c-3 -5 1 -9 9 -9 8 0 12 4 9 9 -3 4 -7 8 -9 8 -2 0 -6 -4
-9 -8z"/>
<path d="M2679 2515 c-1 -3 -2 -10 -3 -15 0 -6 -8 -15 -16 -20 -9 -6 -10 -10
-3 -10 13 0 26 17 29 38 2 11 -5 18 -7 7z"/>
<path d="M220 2400 c-9 -6 -10 -10 -3 -10 6 0 15 5 18 10 8 12 4 12 -15 0z"/>
<path d="M2606 2398 c3 -4 9 -8 15 -8 5 0 9 4 9 8 0 5 -7 9 -15 9 -8 0 -12 -4
-9 -9z"/>
<path d="M2544 2350 c1 -8 11 -15 23 -16 15 -1 21 4 20 18 -1 17 -3 17 -13 4
-14 -19 -21 -20 -27 -3 -2 7 -3 6 -3 -3z"/>
<path d="M310 2339 c0 -5 5 -7 10 -4 6 3 10 8 10 11 0 2 -4 4 -10 4 -5 0 -10
-5 -10 -11z"/>
<path d="M317 2297 c-6 -16 19 -44 30 -33 3 3 1 6 -6 6 -7 0 -10 4 -7 8 2 4 1
14 -3 21 -7 10 -9 9 -14 -2z"/>
<path d="M2476 2297 c3 -10 9 -15 12 -12 3 3 0 11 -7 18 -10 9 -11 8 -5 -6z"/>
<path d="M2508 2303 c7 -3 16 -2 19 1 4 3 -2 6 -13 5 -11 0 -14 -3 -6 -6z"/>
<path d="M2495 2270 c-4 -12 -11 -17 -18 -14 -7 4 -9 4 -5 -1 4 -4 0 -13 -9
-20 -14 -10 -13 -12 7 -10 13 1 24 8 26 16 1 8 5 22 9 32 4 9 5 17 2 17 -3 0
-9 -9 -12 -20z"/>
<path d="M340 2245 c0 -7 30 -13 34 -7 3 4 -4 9 -15 9 -10 1 -19 0 -19 -2z"/>
<path d="M2387 2173 c3 -7 9 -10 14 -7 14 8 11 21 -5 21 -8 0 -12 -6 -9 -14z"/>
<path d="M435 2160 c3 -5 8 -10 11 -10 2 0 4 5 4 10 0 6 -5 10 -11 10 -5 0 -7
-4 -4 -10z"/>
<path d="M500 2135 c0 -5 5 -17 10 -25 5 -8 10 -10 10 -5 0 6 -5 17 -10 25 -5
8 -10 11 -10 5z"/>
<path d="M522 2077 c-8 -10 -6 -13 11 -14 12 0 16 1 9 4 -6 3 -10 9 -6 14 8
14 -2 11 -14 -4z"/>
<path d="M546 2033 c-6 -14 -5 -15 5 -6 7 7 10 15 7 18 -3 3 -9 -2 -12 -12z"/>
<path d="M2080 1880 c-9 -6 -10 -10 -3 -10 6 0 15 5 18 10 8 12 4 12 -15 0z"/>
<path d="M778 1858 c5 -5 16 -8 23 -6 8 3 3 7 -10 11 -17 4 -21 3 -13 -5z"/>
<path d="M826 1761 c-7 -11 32 -47 41 -38 3 4 1 7 -5 7 -7 0 -12 9 -12 20 0
20 -14 27 -24 11z"/>
<path d="M880 1686 c0 -2 7 -6 15 -10 8 -3 15 -1 15 4 0 6 -7 10 -15 10 -8 0
-15 -2 -15 -4z"/>
<path d="M987 1641 c2 -8 -2 -11 -12 -7 -20 7 -19 0 3 -21 21 -21 49 -25 49
-8 0 7 -8 10 -20 7 -14 -4 -18 -1 -15 9 3 8 11 13 17 11 7 -1 10 2 6 8 -3 6
-10 8 -15 5 -4 -3 -10 -2 -13 2 -2 5 -2 2 0 -6z"/>
<path d="M1017 1573 c-4 -3 -7 -11 -7 -17 0 -6 5 -5 12 2 6 6 9 14 7 17 -3 3
-9 2 -12 -2z"/>
<path d="M1165 1479 c-4 -6 -4 -13 -1 -16 3 -4 6 -1 6 6 0 7 5 9 12 5 7 -4 8
-3 4 4 -9 15 -13 15 -21 1z"/>
<path d="M1155 1440 c3 -5 8 -10 11 -10 2 0 4 5 4 10 0 6 -5 10 -11 10 -5 0
-7 -4 -4 -10z"/>
<path d="M1190 1430 c-9 -6 -10 -10 -3 -10 6 0 15 5 18 10 8 12 4 12 -15 0z"/>
<path d="M1336 1302 c-2 -4 -1 -14 4 -22 7 -11 9 -9 7 8 -1 24 -3 26 -11 14z"/>
<path d="M1465 1260 c-3 -6 1 -7 9 -4 18 7 21 14 7 14 -6 0 -13 -4 -16 -10z"/>
<path d="M1396 1198 c3 -5 10 -6 15 -3 13 9 11 12 -6 12 -8 0 -12 -4 -9 -9z"/>
</g>
</svg>
